<svg width="7" height="14" viewBox="0 0 7 14" fill="none" xmlns="http://www.w3.org/2000/svg">
<g clip-path="url(#clip0_1_530)">
<path d="M3.49006 13.9702C2.52448 13.9702 1.70141 13.6299 1.02084 12.9494C0.340282 12.2688 0 11.4457 0 10.4802C0 9.92178 0.122153 9.40117 0.366457 8.91838C0.610762 8.43558 0.953952 8.02551 1.39602 7.68813V2.10402C1.39602 1.52234 1.59962 1.02792 2.00679 0.620741C2.41397 0.213566 2.90839 0.00997925 3.49006 0.00997925C4.07175 0.00997925 4.56617 0.213566 4.97335 0.620741C5.38052 1.02792 5.58411 1.52234 5.58411 2.10402V7.68813C6.02619 8.02551 6.36937 8.43558 6.61368 8.91838C6.85798 9.40117 6.98014 9.92178 6.98014 10.4802C6.98014 11.4457 6.63986 12.2688 5.95929 12.9494C5.27873 13.6299 4.45566 13.9702 3.49006 13.9702ZM2.79206 6.2921H4.18808V5.59408H3.49006V4.89608H4.18808V3.50004H3.49006V2.80204H4.18808V2.10402C4.18808 1.90625 4.12119 1.74047 3.9874 1.60669C3.85362 1.4729 3.68784 1.406 3.49006 1.406C3.29229 1.406 3.12652 1.4729 2.99273 1.60669C2.85895 1.74047 2.79206 1.90625 2.79206 2.10402V6.2921Z" fill="#003FB1"/>
</g>
<defs>
<clipPath id="clip0_1_530">
<rect width="6.98014" height="13.9802" fill="white"/>
</clipPath>
</defs>
</svg>
